<svg xmlns="http://www.w3.org/2000/svg" width="811" height="304" data-name="Layer 1">
  <path fill="#e6e6e6" d="M23.27 268.34a17.58 17.58 0 0 0 16.98-2.99c5.95-4.99 7.81-13.21 9.33-20.83L54.07 222l-9.4 6.47c-6.75 4.65-13.66 9.45-18.34 16.2s-6.72 15.93-2.96 23.22" data-name="Path 438"/>
  <path fill="#f2f2f2" d="M24.72 297.18c-1.18-8.62-2.4-17.34-1.57-26.05.74-7.73 3.1-15.28 7.9-21.48a35.73 35.73 0 0 1 9.17-8.3c.92-.59 1.76.87.85 1.44a33.97 33.97 0 0 0-13.44 16.22c-2.92 7.44-3.4 15.55-2.89 23.45.3 4.78.95 9.53 1.6 14.27a.87.87 0 0 1-.58 1.04.84.84 0 0 1-1.04-.6Z" data-name="Path 439"/>
  <path fill="#e6e6e6" d="M33.23 283.36a12.94 12.94 0 0 0 11.28 5.82c5.71-.27 10.47-4.26 14.76-8.04l12.67-11.19-8.39-.4c-6.03-.29-12.22-.56-17.96 1.3s-11.05 6.34-12.1 12.29" data-name="Path 442"/>
  <path fill="#f2f2f2" d="M21.38 302.13c5.7-10.07 12.3-21.27 24.1-24.84a26.89 26.89 0 0 1 10.13-1.05c1.08.1.8 1.75-.27 1.66a24.98 24.98 0 0 0-16.17 4.28 42.04 42.04 0 0 0-11.12 12c-1.84 2.8-3.49 5.72-5.14 8.64-.52.93-2.06.26-1.53-.69Z" data-name="Path 443"/>
  <path fill="#e6e6e6" d="M544.03 255.18a24.21 24.21 0 0 0 23.38-4.12c8.19-6.88 10.76-18.2 12.85-28.68l6.18-31.02-12.94 8.9c-9.3 6.41-18.82 13.03-25.26 22.3s-9.25 21.95-4.08 32" data-name="Path 438"/>
  <path fill="#f2f2f2" d="M546.02 294.89c-1.62-11.87-3.3-23.88-2.15-35.88 1.01-10.64 4.26-21.04 10.87-29.57a49.2 49.2 0 0 1 12.63-11.45c1.26-.8 2.42 1.2 1.17 2a46.78 46.78 0 0 0-18.5 22.33c-4.04 10.24-4.68 21.41-3.99 32.3.42 6.58 1.31 13.12 2.2 19.65a1.2 1.2 0 0 1-.8 1.42 1.16 1.16 0 0 1-1.42-.8Z" data-name="Path 439"/>
  <path fill="#e6e6e6" d="M557.75 275.85a17.83 17.83 0 0 0 15.53 8.02c7.86-.37 14.42-5.86 20.31-11.07l17.46-15.41-11.55-.55c-8.31-.4-16.83-.77-24.74 1.79s-15.21 8.73-16.66 16.92" data-name="Path 442"/>
  <path fill="#f2f2f2" d="M541.42 301.7c7.84-13.87 16.93-29.28 33.18-34.2a37.03 37.03 0 0 1 13.96-1.45c1.48.13 1.11 2.41-.37 2.28a34.4 34.4 0 0 0-22.27 5.9c-6.28 4.27-11.17 10.21-15.3 16.52-2.54 3.86-4.81 7.88-7.09 11.9-.72 1.28-2.84.36-2.1-.94Z" data-name="Path 443"/>
  <path fill="#cbcbcb" d="M665.05 344.46a3.67 3.67 0 0 1-2.05-4.44 1.77 1.77 0 0 0 .08-.41 1.84 1.84 0 0 0-3.3-1.22 1.77 1.77 0 0 0-.21.36 3.67 3.67 0 0 1-4.44 2.05 1.77 1.77 0 0 0-.41-.08 1.84 1.84 0 0 0-1.22 3.3 1.77 1.77 0 0 0 .36.21 3.67 3.67 0 0 1 2.05 4.44 1.77 1.77 0 0 0-.08.4 1.84 1.84 0 0 0 3.3 1.23 1.77 1.77 0 0 0 .21-.36 3.67 3.67 0 0 1 4.44-2.05 1.77 1.77 0 0 0 .41.08 1.84 1.84 0 0 0 1.22-3.31 1.77 1.77 0 0 0-.36-.2Z" style="isolation:isolate" transform="translate(-194.5 -298)"/>
  <path fill="#f1f1f1" d="M735.05 507.46a3.67 3.67 0 0 1-2.05-4.44 1.77 1.77 0 0 0 .08-.41 1.84 1.84 0 0 0-3.3-1.22 1.77 1.77 0 0 0-.21.36 3.67 3.67 0 0 1-4.44 2.05 1.77 1.77 0 0 0-.41-.08 1.84 1.84 0 0 0-1.22 3.3 1.77 1.77 0 0 0 .36.21 3.67 3.67 0 0 1 2.05 4.44 1.77 1.77 0 0 0-.08.4 1.84 1.84 0 0 0 3.3 1.23 1.77 1.77 0 0 0 .21-.36 3.67 3.67 0 0 1 4.44-2.05 1.77 1.77 0 0 0 .41.08 1.84 1.84 0 0 0 1.22-3.31 1.77 1.77 0 0 0-.36-.2ZM368.05 412.46a3.67 3.67 0 0 1-2.05-4.44 1.77 1.77 0 0 0 .08-.41 1.84 1.84 0 0 0-3.3-1.22 1.77 1.77 0 0 0-.21.36 3.67 3.67 0 0 1-4.44 2.05 1.77 1.77 0 0 0-.41-.08 1.84 1.84 0 0 0-1.22 3.3 1.77 1.77 0 0 0 .36.21 3.67 3.67 0 0 1 2.05 4.44 1.77 1.77 0 0 0-.08.4 1.84 1.84 0 0 0 3.3 1.23 1.77 1.77 0 0 0 .21-.36 3.67 3.67 0 0 1 4.44-2.05 1.77 1.77 0 0 0 .41.08 1.84 1.84 0 0 0 1.22-3.31 1.77 1.77 0 0 0-.36-.2Z" style="isolation:isolate" transform="translate(-194.5 -298)"/>
  <circle cx="326.65" cy="50" r="6" fill="#f1f1f1" style="isolation:isolate"/>
  <circle cx="646.65" cy="34" r="6" fill="#f0a"/>
  <circle cx="180.65" cy="6" r="6" fill="#cbcbcb"/>
  <circle cx="157.58" cy="241.62" r="43.07" fill="#2f2e41"/>
  <path fill="#2f2e41" d="M137.95 275.42h13.08v23.44h-13.08zM164.12 275.42h13.08v23.44h-13.08z"/>
  <ellipse cx="148.86" cy="299.14" fill="#2f2e41" rx="10.9" ry="4.09"/>
  <ellipse cx="175.02" cy="298.59" fill="#2f2e41" rx="10.9" ry="4.09"/>
  <ellipse cx="393.18" cy="515.5" fill="#2f2e41" rx="23.89" ry="7.5" transform="rotate(-45.02 -63.59 601.16)"/>
  <ellipse cx="300.48" cy="518.5" fill="#2f2e41" rx="7.5" ry="23.89" transform="rotate(-44.98 -156.69 604.41)"/>
  <circle cx="155.77" cy="235.52" r="14.72" fill="#fff"/>
  <circle cx="155.77" cy="235.52" r="4.91" fill="#3f3d56"/>
  <path fill="#fff" d="M167.45 262.74a9.57 9.57 0 0 1-18.83 3.43v-.02c-.95-5.2 3.07-7.04 8.28-7.98s9.61-.63 10.55 4.57Z"/>
  <path fill="#e5e5e5" d="M199.81 286.82a3.66 3.66 0 0 0-3.66 3.66v7.64a3.66 3.66 0 0 0 3.66 3.65h58.83a3.66 3.66 0 0 0 3.66-3.65v-7.64a3.66 3.66 0 0 0-3.66-3.66Z"/>
  <path fill="#f0a" d="M233.64 281.74a1.59 1.59 0 0 0-2.16.58l-2.19 3.78-2.14-4.23a1.59 1.59 0 1 0-2.83 1.43l1.67 3.3h-.62V302h8.16v-15.4h-.86l1.55-2.7a1.59 1.59 0 0 0-.58-2.16ZM156.47 213.38a76.09 76.09 0 0 1-22.56-3.45 2.53 2.53 0 0 1-1.76-2.4V190a2.5 2.5 0 0 1 2.5-2.5h44a2.5 2.5 0 0 1 2.5 2.5v17.52a2.5 2.5 0 0 1-1.78 2.4 79.18 79.18 0 0 1-22.9 3.46Z"/>
  <path d="M180.65 190v2.93l-23.8 8.35a2.02 2.02 0 0 1-1.38-.02l-22.82-8.57V190a2 2 0 0 1 2-2h44a2 2 0 0 1 2 2Z" opacity=".2"/>
  <path fill="#f0a" d="M156.18 197.9a2.5 2.5 0 0 1-.88-.17l-34.1-12.8a2.5 2.5 0 0 1 .07-4.7l32.08-10.98a2.53 2.53 0 0 1 1.6-.01l35.81 11.94a2.5 2.5 0 0 1 .04 4.73L157 197.75a2.5 2.5 0 0 1-.82.14Z"/>
  <path fill="#3f3d56" d="M125.15 197h-1v-14.5h30.5v1h-29.5V197z"/>
  <circle cx="124.65" cy="198" r="2" fill="#3f3d56"/>
  <circle cx="406.58" cy="241.62" r="43.07" fill="#2f2e41"/>
  <path fill="#2f2e41" d="M386.95 275.42h13.08v23.44h-13.08zM413.12 275.42h13.08v23.44h-13.08z"/>
  <ellipse cx="397.86" cy="299.14" fill="#2f2e41" rx="10.9" ry="4.09"/>
  <ellipse cx="424.02" cy="298.59" fill="#2f2e41" rx="10.9" ry="4.09"/>
  <ellipse cx="642.18" cy="515.5" fill="#2f2e41" rx="23.89" ry="7.5" transform="rotate(-45.02 185.41 601.16)"/>
  <ellipse cx="556.48" cy="556.5" fill="#2f2e41" rx="23.89" ry="7.5" transform="rotate(-55.23 174.37 593.42)"/>
  <circle cx="404.77" cy="235.52" r="14.72" fill="#fff"/>
  <circle cx="409.77" cy="230.52" r="4.91" fill="#3f3d56"/>
  <path fill="#fff" d="M422.42 262.74c1.44 5.2-3.82 10.19-11.75 11.13s-15.54-2.5-16.98-7.7v-.02c-1.44-5.2 4.7-7.04 12.63-7.98s14.66-.63 16.1 4.57Z"/>
  <path fill="#f0a" d="M391.51 216.28a76.09 76.09 0 0 1-22.22 5.22 2.53 2.53 0 0 1-2.52-1.57l-6.54-16.27a2.5 2.5 0 0 1 1.39-3.25l40.82-16.42a2.5 2.5 0 0 1 3.25 1.4l6.54 16.25a2.5 2.5 0 0 1-.76 2.89 79.19 79.19 0 0 1-19.96 11.75Z"/>
  <path d="m405.23 185.57 1.1 2.72-18.99 16.63a2.02 2.02 0 0 1-1.27.49l-24.37.56-1-2.5a2 2 0 0 1 1.1-2.6l40.83-16.41a2 2 0 0 1 2.6 1.1Z" opacity=".2"/>
  <path fill="#f0a" d="M385.46 202.02a2.5 2.5 0 0 1-.87.18l-36.42.84a2.5 2.5 0 0 1-1.69-4.39l25.67-22.15a2.53 2.53 0 0 1 1.49-.6l37.67-2.3a2.5 2.5 0 0 1 1.8 4.38l-26.93 23.6a2.5 2.5 0 0 1-.72.44Z"/>
  <path fill="#3f3d56" d="m356.35 212.77-.93.37-5.41-13.45 28.3-11.38.37.93-27.37 11 5.04 12.53z"/>
  <circle cx="356.25" cy="213.88" r="2" fill="#3f3d56"/>
  <path fill="#f0a" d="M570.54 139.87a76.09 76.09 0 0 1-17.34-14.85 2.53 2.53 0 0 1-.22-2.97l9.27-14.88a2.5 2.5 0 0 1 3.44-.8l37.35 23.26a2.5 2.5 0 0 1 .8 3.44l-9.25 14.87a2.5 2.5 0 0 1-2.78 1.1 79.18 79.18 0 0 1-21.27-9.17Z"/>
  <path d="m603.42 132.8-1.55 2.5-24.62-5.5a2.02 2.02 0 0 1-1.16-.74l-14.84-19.34 1.42-2.28a2 2 0 0 1 2.76-.64l37.35 23.25a2 2 0 0 1 .64 2.76Z" opacity=".2"/>
  <path fill="#f0a" d="M578.47 126.57a2.5 2.5 0 0 1-.66-.6l-22.18-28.9a2.5 2.5 0 0 1 2.55-3.95l33.03 7.64a2.53 2.53 0 0 1 1.37.84l24.09 29.06a2.5 2.5 0 0 1-2.47 4.03l-34.95-7.8a2.5 2.5 0 0 1-.78-.32Z"/>
  <path fill="#3f3d56" d="m552.61 109.42-.85-.53 7.66-12.31 25.89 16.12-.52.85-25.05-15.59-7.13 11.46z"/>
  <circle cx="551.65" cy="110" r="2" fill="#3f3d56"/>
  <circle cx="674.73" cy="192.62" r="43.07" fill="#2f2e41"/>
  <path fill="#2f2e41" d="m693.42 221.78 11.16-6.82 12.22 20-11.16 6.82zM671.09 235.42l11.16-6.82 12.22 20-11.16 6.82z"/>
  <ellipse cx="902.15" cy="538.87" fill="#2f2e41" rx="10.9" ry="4.09" transform="rotate(-31.43 275.37 735.5)"/>
  <ellipse cx="879.54" cy="552.06" fill="#2f2e41" rx="10.9" ry="4.09" transform="rotate(-31.43 252.75 748.67)"/>
  <ellipse cx="828.12" cy="466.5" fill="#2f2e41" rx="7.5" ry="23.89" transform="rotate(-44.98 370.96 552.41)"/>
  <ellipse cx="913.83" cy="507.5" fill="#2f2e41" rx="7.5" ry="23.89" transform="rotate(-34.77 340.75 669.07)"/>
  <circle cx="661.54" cy="180.52" r="14.72" fill="#fff"/>
  <circle cx="656.54" cy="175.52" r="4.91" fill="#3f3d56"/>
  <path fill="#fff" d="M642.59 205.07c-2.8 4.58.92 10.76 8.3 13.82s15.62 1.83 18.42-2.74v-.02c2.79-4.57-2.62-8-10-11.05s-13.94-4.58-16.72 0Z"/>
  <path fill="#e6e6e6" d="M660.28 138.55c3.84-15.49 20.82-24.6 37.91-20.36s27.84 20.24 23.99 35.73-16.6 15.54-33.7 11.3-32.05-11.19-28.2-26.67Z"/>
  <path fill="#cbcbcb" d="M810 304H1a1 1 0 0 1 0-2h809a1 1 0 0 1 0 2Z"/>
</svg>
