<svg xmlns="http://www.w3.org/2000/svg" width="911.6" height="451.38" data-name="Layer 1">
  <path fill="#ccc" d="M522.7 441.73a21.28 21.28 0 0 1 0-42.57h316.14a18.5 18.5 0 0 0-16.23-9.65H194.2a30.93 30.93 0 0 0-30.9 30.94 30.95 30.95 0 0 0 30.9 30.93h628.4a18.5 18.5 0 0 0 16.23-9.65Z"/>
  <path fill="#ccc" d="M839.26 410.9H538.7a1.74 1.74 0 0 1 0-3.48h300.57a1.74 1.74 0 0 1 0 3.47ZM839.26 422.19H538.7a1.74 1.74 0 0 1 0-3.48h300.57a1.74 1.74 0 0 1 0 3.48ZM839.26 433.48H538.7a1.74 1.74 0 0 1 0-3.48h300.57a1.74 1.74 0 0 1 0 3.48Z"/>
  <path fill="#0af" d="M441.05 381.8a21.28 21.28 0 0 1 0-42.58h316.13a18.5 18.5 0 0 0-16.23-9.65h-628.4a30.93 30.93 0 0 0-30.9 30.94 30.95 30.95 0 0 0 30.9 30.93h628.4a18.5 18.5 0 0 0 16.23-9.65Z"/>
  <path fill="#ccc" d="M757.6 350.95H457.03a1.74 1.74 0 0 1 0-3.47H757.6a1.74 1.74 0 1 1 0 3.47ZM757.6 362.25H457.03a1.74 1.74 0 0 1 0-3.48H757.6a1.74 1.74 0 1 1 0 3.48ZM757.6 373.54H457.03a1.74 1.74 0 0 1 0-3.48H757.6a1.74 1.74 0 1 1 0 3.48ZM359.4 319.85a21.28 21.28 0 0 1 0-42.57h316.13a18.5 18.5 0 0 0-16.24-9.65H30.89A30.93 30.93 0 0 0 0 298.57a30.95 30.95 0 0 0 30.9 30.93h628.39a18.5 18.5 0 0 0 16.24-9.65Z"/>
  <path fill="#ccc" d="M675.95 289.01H375.38a1.74 1.74 0 0 1 0-3.47h300.57a1.74 1.74 0 1 1 0 3.47ZM675.95 300.3H375.38a1.74 1.74 0 1 1 0-3.47h300.57a1.74 1.74 0 1 1 0 3.47ZM675.95 311.6H375.38a1.74 1.74 0 0 1 0-3.48h300.57a1.74 1.74 0 1 1 0 3.48Z"/>
  <path fill="#0af" d="M682.89 187.71a6.5 6.5 0 0 1-6.48-6.07l-.96-14.73a6.5 6.5 0 0 1 6.06-6.91l115.39-7.56a13.88 13.88 0 1 1 1.81 27.7l-115.39 7.56-.43.01Z"/>
  <path fill="#2f2e41" d="M705.64 189.61a6.5 6.5 0 0 1-6.5-6.26l-.81-22a6.5 6.5 0 0 1 6.25-6.73l94.88-3.55a6.5 6.5 0 0 1 6.74 6.26l.83 22a6.5 6.5 0 0 1-6.26 6.73l-94.88 3.55h-.25ZM816.83 392.4h-14.76a6.5 6.5 0 0 1-6.5-6.5V262.87a6.5 6.5 0 0 1 6.5-6.5h14.76a6.5 6.5 0 0 1 6.5 6.5v123.01a6.5 6.5 0 0 1-6.5 6.5Z"/>
  <path fill="#2f2e41" d="m751.32 327.37-12.62-7.65a6.5 6.5 0 0 1-2.2-8.93l63.77-105.2a6.5 6.5 0 0 1 8.93-2.19l12.62 7.65a6.5 6.5 0 0 1 2.2 8.93l-63.77 105.2a6.5 6.5 0 0 1-8.93 2.19Z"/>
  <circle cx="794.41" cy="77" r="51" fill="#0af"/>
  <path fill="#2f2e41" d="M766.8 94.41a12.1 12.1 0 0 1-4.4-2.59 8.13 8.13 0 0 1-2.39-6.44 5.47 5.47 0 0 1 2.44-4.2c1.82-1.18 4.26-1.18 6.74-.09l-.09-19.9 2-.02.11 23.4-1.54-.96c-1.79-1.12-4.34-1.91-6.14-.76a3.51 3.51 0 0 0-1.52 2.72 6.15 6.15 0 0 0 1.76 4.8c2.21 2.11 5.43 2.77 9.1 3.36l-.3 1.98a32.96 32.96 0 0 1-5.76-1.3ZM748.23 62.16l.26-1.98 10.68 1.4-.27 2zM781.93 66.6l.27-1.97 10.67 1.4-.26 1.99zM837 295.88h-86a8.51 8.51 0 0 1-8.5-8.5l18-138.06a8.49 8.49 0 0 1 8.5-8.44h30.52a46.03 46.03 0 0 1 45.98 45.98v100.52a8.51 8.51 0 0 1-8.5 8.5Z"/>
  <path fill="#0af" d="M911 241.48a6.51 6.51 0 0 1-.98 7l-9.65 11.18a6.5 6.5 0 0 1-9.16.67l-87.5-75.6a13.88 13.88 0 1 1 18.14-21l87.5 75.59a6.46 6.46 0 0 1 1.64 2.16Z"/>
  <path fill="#2f2e41" d="M891.68 216.53a6.51 6.51 0 0 1-.97 7.01l-16.48 19.08a6.5 6.5 0 0 1-9.17.67l-71.85-62.08a6.5 6.5 0 0 1-.67-9.17l16.48-19.07a6.5 6.5 0 0 1 9.17-.67l71.85 62.07a6.47 6.47 0 0 1 1.64 2.16ZM795.37 46.75c-6.82-5.64-15.93-.3-23.64-1.06-7.38-.73-13.32-7.22-14.93-14.2-1.9-8.15 2.2-16.43 8.36-21.65 6.75-5.72 15.82-7.5 24.45-6.63 9.9 1 19.02 5.43 27.23 10.85a121.85 121.85 0 0 1 21.78 17.76c5.87 6.24 10.89 13.72 12.6 22.23 1.57 7.74.65 16.37-3.81 23.03a24.2 24.2 0 0 1-9.33 7.99c-3.9 2-8.07 3.47-11.84 5.72-5.7 3.42-11.18 10.38-9.24 17.47a9.8 9.8 0 0 0 2.3 4.15c1.32 1.4 3.61-.53 2.3-1.94-2.33-2.48-2.3-5.85-1.15-8.88a16.27 16.27 0 0 1 7.08-8.09c3.95-2.36 8.33-3.85 12.39-6a27.02 27.02 0 0 0 9.75-8.4c4.77-6.9 6.06-15.8 4.8-23.97-1.37-8.84-6.08-16.81-11.92-23.45-6.36-7.23-14.1-13.3-22.01-18.75C812.05 7.1 802.7 2.2 792.44.56c-8.9-1.42-18.49-.26-26.15 4.72-7.15 4.65-12.56 12.52-12.94 21.2a22.24 22.24 0 0 0 10.75 19.74 19.1 19.1 0 0 0 11.46 2.43c4.25-.36 8.5-1.74 12.79-1.46a8.94 8.94 0 0 1 5.3 2.03c1.5 1.23 3.2-1.24 1.72-2.47ZM735.4 312.57l.06-.34a6.46 6.46 0 0 1 2.83-4.1l12.4-8a6.5 6.5 0 0 1 9 1.95l38.25 59.32a6.5 6.5 0 0 1-1.93 8.98l-12.4 8a6.5 6.5 0 0 1-9-1.94l-38.26-59.32a6.45 6.45 0 0 1-.95-4.55Z"/>
</svg>
