<svg xmlns="http://www.w3.org/2000/svg" fill="currentColor" class="w-6 h-6" viewBox="0 0 24 24">
  <path d="M3.53 2.47a.75.75 0 0 0-1.06 1.06l18 18a.75.75 0 1 0 1.06-1.06l-18-18zm19.15 10.08a11.25 11.25 0 0 1-2.64 4.31l-3.1-3.1a5.25 5.25 0 0 0-6.7-6.7L7.76 4.57A11.22 11.22 0 0 1 12 3.75c4.97 0 9.19 3.22 10.68 7.69.12.36.12.75 0 1.11z"/>
  <path d="M15.75 12c0 .18-.01.36-.04.53l-4.24-4.24A3.75 3.75 0 0 1 15.75 12zm-3.22 3.71-4.24-4.24a3.75 3.75 0 0 0 4.24 4.24z"/>
  <path d="M6.75 12c0-.62.1-1.21.3-1.76l-3.1-3.1a11.25 11.25 0 0 0-2.63 4.3c-.12.37-.12.76 0 1.12a11.25 11.25 0 0 0 14.92 6.86l-2.48-2.47A5.25 5.25 0 0 1 6.75 12z"/>
</svg>
