<svg xmlns="http://www.w3.org/2000/svg" fill="currentColor" class="w-6 h-6" viewBox="0 0 24 24">
  <path fill-rule="evenodd" d="M6.91 3a3 3 0 0 0-2.87 2.12l-2.4 7.84a3 3 0 0 0-.14.88V18a3 3 0 0 0 3 3h15a3 3 0 0 0 3-3v-4.16a3 3 0 0 0-.13-.88l-2.42-7.84A3 3 0 0 0 17.1 3H6.9zm13.82 9.75-2.2-7.2a1.5 1.5 0 0 0-1.44-1.05H6.9a1.5 1.5 0 0 0-1.43 1.06l-2.22 7.19h2.85a3 3 0 0 1 2.68 1.66l.26.51a1.5 1.5 0 0 0 1.34.83h3.22a1.5 1.5 0 0 0 1.34-.83l.26-.51a3 3 0 0 1 2.68-1.66h2.85z" clip-rule="evenodd"/>
</svg>
