<svg xmlns="http://www.w3.org/2000/svg" fill="currentColor" class="w-6 h-6" viewBox="0 0 24 24">
  <path d="M13.5 4.06c0-1.34-1.62-2-2.56-1.06l-4.5 4.5H4.51a2.7 2.7 0 0 0-2.66 1.9A9.76 9.76 0 0 0 1.5 12c0 .9.12 1.77.35 2.6a2.7 2.7 0 0 0 2.66 1.9h1.93l4.5 4.5a1.5 1.5 0 0 0 2.56-1.06V4.06zm5.08 1.05a.75.75 0 0 1 1.06 0 9.75 9.75 0 0 1 0 13.78.75.75 0 1 1-1.06-1.06 8.25 8.25 0 0 0 0-11.66.75.75 0 0 1 0-1.06z"/>
  <path d="M15.93 7.76a.75.75 0 0 1 1.06 0 6 6 0 0 1 0 8.48.75.75 0 0 1-1.06-1.06 4.5 4.5 0 0 0 0-6.36.75.75 0 0 1 0-1.06z"/>
</svg>
